<?xml version="1.0" standalone="no"?><!DOCTYPE svg PUBLIC "-//W3C//DTD SVG 1.1//EN" "http://www.w3.org/Graphics/SVG/1.1/DTD/svg11.dtd"><svg t="1560505589583" class="icon" style="" viewBox="0 0 1024 1024" version="1.1" xmlns="http://www.w3.org/2000/svg" p-id="4061" xmlns:xlink="http://www.w3.org/1999/xlink" width="64" height="64"><defs><style type="text/css"></style></defs><path d="M582.54 59.399c1.45 1.854 3.171 3.574 4.494 5.554-1.456-1.979-3.044-3.7-4.494-5.554z m-24.719-21.543z m-158.212 90.279l-49.692 101.378a95.412 95.412 0 0 1-4.892 8.721 91.237 91.237 0 0 0 4.892-8.721l49.692-101.378z m398.899-75.077z m0 0" fill="#F5B519" p-id="4062"></path><path d="M908.207 303.925l-167.064-23.792a94.912 94.912 0 0 1-71.635-51.684l-71.64-143.935c28.179 71.818 1.776 153.545-63.101 195.295-64.871 41.75-150.196 31.93-203.885-23.471a94.742 94.742 0 0 1-52.211 26.432l-166.934 23.793C76.06 311.909 46.5 337.016 35.459 371.36c-11.049 34.341-1.669 71.973 24.202 97.111l121.203 117.373a94.906 94.906 0 0 1 27.491 83.93L180.467 836.31c-5.71 35.518 9.151 71.207 38.374 92.176 29.232 20.969 67.804 23.617 99.618 6.828l149.219-79.307a94.905 94.905 0 0 1 88.291 0l149.62 78.113c32.019 16.677 70.727 13.74 99.864-7.575 29.135-21.315 43.656-57.31 37.467-92.872l-29.077-166.277a94.892 94.892 0 0 1 26.431-84.059l120.543-118.166c25.49-25.252 34.561-62.733 23.43-96.848-11.131-34.118-40.556-59.037-76.04-64.398zM510.238 693.569c-56.224-0.078-101.773-45.684-101.773-101.904a23.732 23.732 0 0 1 11.862-20.551 23.733 23.733 0 0 1 23.729 0 23.732 23.732 0 0 1 11.861 20.551c0 29.998 24.321 54.318 54.321 54.318 30.005 0 54.327-24.32 54.327-54.318a23.724 23.724 0 1 1 47.446 0c0 56.221-45.542 101.826-101.773 101.904zM339.472 246.028l3.435-4.492-3.435 4.492z m0 0" fill="#F5B519" p-id="4063"></path><path d="M588.219 568.006c-13.066 0-23.654 10.593-23.654 23.659 0 29.998-24.321 54.318-54.327 54.318-30 0-54.321-24.32-54.321-54.318a23.732 23.732 0 0 0-11.861-20.551 23.733 23.733 0 0 0-23.729 0 23.731 23.731 0 0 0-11.862 20.551c0 56.205 45.568 101.771 101.773 101.771 56.21 0 101.773-45.566 101.773-101.771a23.63 23.63 0 0 0-6.978-16.779 23.617 23.617 0 0 0-16.814-6.88z m0 0M562.828 248.645l-2.143-4.284 2.143 4.284z m-101.17-9.453a57.95 57.95 0 0 0-3.176 5.48l-14.773 30.181 14.773-30.181a57.95 57.95 0 0 1 3.176-5.48z m-52.337 103.796l1.272-1.984-1.272 1.984z m92.518-129.681z m49.239 17.234c0.871 0.949 1.666 2.064 2.461 3.093-0.795-1.108-1.271-2.223-2.461-3.093zM402.415 351.485a56.467 56.467 0 0 0 5.161-5.798 58.651 58.651 0 0 1-5.161 5.798z m0 0" fill="#FFFFFF" p-id="4064"></path><path d="M569.341 283.351a96.9 96.9 0 0 0-6.513-34.865l-2.143-4.286a59.792 59.792 0 0 0-4.367-7.468c-0.873-1.188-1.828-2.223-2.699-3.336-0.875-1.109-1.59-2.144-2.463-3.093a55.61 55.61 0 0 0-12.389-9.691 56.727 56.727 0 0 0-6.912-3.416 57.516 57.516 0 0 0-14.768-3.889 58.44 58.44 0 0 0-15.249 0 55.976 55.976 0 0 0-40.181 26.046 57.81 57.81 0 0 0-3.176 5.479l-14.773 30.18-29.857 60.752a54.685 54.685 0 0 1-2.939 5.24l-1.272 1.984-2.064 2.699a56.35 56.35 0 0 1-5.161 5.798c27.65 28.224 69.623 36.917 106.207 22.002 36.588-14.913 60.52-50.471 60.561-89.978l0.158-0.158z m0 0" fill="#F5B519" p-id="4065"></path><path d="M608.707 142.278a161.258 161.258 0 0 0-10.839-58.03l-3.567-7.133a99.997 99.997 0 0 0-7.267-12.429c-1.456-1.978-3.044-3.698-4.494-5.553-1.454-1.846-2.646-3.566-4.099-5.147a92.633 92.633 0 0 0-20.62-16.13 94.07 94.07 0 0 0-11.503-5.684 95.713 95.713 0 0 0-24.578-6.473 97.221 97.221 0 0 0-25.38 0 93.169 93.169 0 0 0-66.876 43.349 96.54 96.54 0 0 0-5.286 9.119l-24.589 50.23-49.692 101.113a91.482 91.482 0 0 1-4.892 8.721l-2.117 3.303-3.435 4.492a93.856 93.856 0 0 1-8.589 9.649c46.02 46.974 115.876 61.442 176.765 36.618 60.895-24.82 100.726-84 100.796-149.754l0.262-0.261z m0 0" fill="#F4C149" p-id="4066"></path></svg>